<svg id="Capa_1" data-name="Capa 1" xmlns="http://www.w3.org/2000/svg" viewBox="0 0 500 500"><defs><style>.cls-1{fill:#232928;}.cls-2{fill:#7297c5;}.cls-3{fill:#555758;}.cls-4{fill:#d97a0c;}.cls-5{fill:#eaf3e0;}.cls-6{fill:#e88019;}.cls-7{fill:#fcfdf8;}.cls-8{fill:#000003;}</style></defs><title>Mesa de trabajo 1</title><g id="_Grupo_" data-name="&lt;Grupo&gt;"><path class="cls-1" d="M324.11,426.3c10.24,0,18.53-7.54,18.53-16.85s-8.3-16.85-18.53-16.85H175.85c-10.24,0-18.53,7.54-18.53,16.85s8.3,16.85,18.53,16.85Z"/></g><g id="_Grupo_2" data-name="&lt;Grupo&gt;"><g id="_Grupo_3" data-name="&lt;Grupo&gt;"><path class="cls-1" d="M453.84,55.64H46.12c-10.24,0-18.53,7.54-18.53,16.85V342.06c0,9.31,8.3,16.85,18.53,16.85H453.84c10.24,0,18.53-7.54,18.53-16.85V72.49C472.38,63.18,464.08,55.64,453.84,55.64Z"/></g><g id="_Grupo_4" data-name="&lt;Grupo&gt;"><path class="cls-2" d="M55.38,291.52c0,4.65,4.15,8.42,9.27,8.42H435.31c5.12,0,9.27-3.77,9.27-8.42V97.76c0-4.65-4.15-8.42-9.27-8.42H64.65c-5.12,0-9.27,3.77-9.27,8.42Z"/></g></g><g id="_Grupo_5" data-name="&lt;Grupo&gt;"><ellipse class="cls-3" cx="250.48" cy="330.6" rx="18.53" ry="16.85"/></g><g id="_Grupo_6" data-name="&lt;Grupo&gt;"><path class="cls-4" d="M168.32,120.51a27.39,27.39,0,1,1-54.77,0V92.71h54.77Z"/></g><g id="_Grupo_7" data-name="&lt;Grupo&gt;"><path class="cls-5" d="M223.09,120.51a27.39,27.39,0,1,1-54.77,0V92.71h54.77Z"/></g><g id="_Grupo_8" data-name="&lt;Grupo&gt;"><path class="cls-4" d="M58.77,120.51a27.6,27.6,0,0,1-27.39,27.8A27.6,27.6,0,0,1,4,120.51V92.71H58.77Z"/></g><g id="_Grupo_9" data-name="&lt;Grupo&gt;"><path class="cls-5" d="M113.55,120.51a27.39,27.39,0,1,1-54.77,0V92.71h54.77Z"/></g><g id="_Grupo_10" data-name="&lt;Grupo&gt;"><path class="cls-4" d="M277.86,120.51a27.39,27.39,0,1,1-54.77,0V92.71h54.77Z"/></g><g id="_Grupo_11" data-name="&lt;Grupo&gt;"><path class="cls-5" d="M332.64,120.51a27.39,27.39,0,1,1-54.77,0V92.71h54.77Z"/></g><g id="_Grupo_12" data-name="&lt;Grupo&gt;"><path class="cls-4" d="M387.41,120.51a27.39,27.39,0,1,1-54.77,0V92.71h54.77Z"/></g><g id="_Grupo_13" data-name="&lt;Grupo&gt;"><path class="cls-5" d="M442.18,120.51a27.39,27.39,0,1,1-54.77,0V92.71h54.77Z"/></g><g id="_Grupo_14" data-name="&lt;Grupo&gt;"><path class="cls-4" d="M497,120.51a27.39,27.39,0,1,1-54.77,0V92.71H497Z"/></g><g id="_Grupo_15" data-name="&lt;Grupo&gt;"><polygon class="cls-6" points="113.55 92.7 133.38 55.64 184.51 55.64 168.32 92.7 113.55 92.7"/></g><g id="_Grupo_16" data-name="&lt;Grupo&gt;"><polygon class="cls-6" points="4 92.7 31.88 55.64 80.07 55.64 58.77 92.7 4 92.7"/></g><g id="_Grupo_17" data-name="&lt;Grupo&gt;"><polygon class="cls-7" points="168.32 92.7 184.51 55.64 229.79 55.64 223.09 92.7 168.32 92.7"/></g><g id="_Grupo_18" data-name="&lt;Grupo&gt;"><polygon class="cls-7" points="58.77 92.7 80.07 55.64 133.38 55.64 113.55 92.7 58.77 92.7"/></g><g id="_Grupo_19" data-name="&lt;Grupo&gt;"><polygon class="cls-6" points="387.41 92.7 367.57 55.64 316.44 55.64 332.64 92.7 387.41 92.7"/></g><g id="_Grupo_20" data-name="&lt;Grupo&gt;"><polygon class="cls-6" points="496.95 92.7 469.08 55.64 420.88 55.64 442.18 92.7 496.95 92.7"/></g><g id="_Grupo_21" data-name="&lt;Grupo&gt;"><polygon class="cls-7" points="332.64 92.7 316.44 55.64 271.17 55.64 277.86 92.7 332.64 92.7"/></g><g id="_Grupo_22" data-name="&lt;Grupo&gt;"><polygon class="cls-7" points="442.18 92.7 420.88 55.64 367.57 55.64 387.41 92.7 442.18 92.7"/></g><g id="_Grupo_23" data-name="&lt;Grupo&gt;"><polygon class="cls-6" points="223.09 92.7 229.79 55.64 271.17 55.64 277.86 92.7 223.09 92.7"/></g><g id="_Grupo_24" data-name="&lt;Grupo&gt;"><rect class="cls-8" x="212.91" y="358.91" width="74.13" height="33.7"/></g><path class="cls-7" d="M286.49,206.34a27.36,27.36,0,0,0-19.11.71l-14.06,5.62L240,190.22a11.25,11.25,0,0,0-15.4-3.93l-.14.09a11.25,11.25,0,0,0-3.93,15.4l21.4,36L225.25,240a10,10,0,0,0-7.31,15.06l.07.12a10,10,0,0,0,6.72,4.72L259,266.54l5.75,9.68a2.91,2.91,0,0,0,5-3l-6.42-10.81a2.91,2.91,0,0,0-2-1.37l-35.54-6.87a4.2,4.2,0,0,1-2.81-2l-.07-.12a4.2,4.2,0,0,1,3.06-6.3L247.07,243a2.89,2.89,0,0,0,1.35-.54l.08-.06.14-.12.11-.11.08-.09L249,242l.06-.08.1-.15.06-.09.08-.14.06-.11.06-.13.06-.14,0-.11,0-.16,0-.11c0-.06,0-.11,0-.17s0-.09,0-.13,0-.1,0-.15,0-.13,0-.19,0-.06,0-.09a2.89,2.89,0,0,0-.41-1.4l-23.66-39.84a5.42,5.42,0,0,1,1.89-7.42l.14-.09A5.42,5.42,0,0,1,235,193.2l14.29,24.06a3,3,0,0,0,.18.26,2.91,2.91,0,0,0,3.72,1.48l16.39-6.55,0,0a21.63,21.63,0,0,1,26.79,8.88l.15.26a30.93,30.93,0,0,1,4.27,14l1,17.09a2.91,2.91,0,1,0,5.82-.33l-1-17.09a36.78,36.78,0,0,0-5.08-16.66l-.15-.26A27.36,27.36,0,0,0,286.49,206.34Z"/><path class="cls-7" d="M220.64,179.79a2.91,2.91,0,0,0,1-4l-4.52-7.61a2.91,2.91,0,0,0-5,3l4.52,7.61A2.91,2.91,0,0,0,220.64,179.79Z"/><path class="cls-7" d="M248.28,191a2.91,2.91,0,0,0,4,1l7.61-4.52a2.91,2.91,0,0,0-3-5L249.3,187A2.91,2.91,0,0,0,248.28,191Z"/><path class="cls-7" d="M240.38,176.51a2.91,2.91,0,0,0,1.34-1.79l2.19-8.58a2.91,2.91,0,0,0-5.65-1.44l-2.19,8.58a2.91,2.91,0,0,0,4.31,3.23Z"/><path class="cls-7" d="M204.13,197a2.91,2.91,0,1,0,1.44-5.65L197,189.21a2.91,2.91,0,0,0-1.44,5.65Z"/><path class="cls-7" d="M206.75,219l7.61-4.52a2.91,2.91,0,1,0-3-5L203.78,214a2.91,2.91,0,0,0,3,5Z"/></svg>