<svg version="1.1"
      xmlns="http://www.w3.org/2000/svg"
      xmlns:xlink="http://www.w3.org/1999/xlink"  id="snapshot-72934" width="439.5" height="222.66" viewBox="0 0 439.5 222.66"><desc>This image was made on Patterninja.com</desc><defs>
<!-- image 90020 -->
<g id="transformed-90020" data-image="90020" transform="translate(365.32999368430603, 15.389993684306077) rotate(17, 24.630006315693922, 24.630006315693926)"><g><svg version="1.1" width="49.260012631387845px" height="49.26001263138785px" viewBox="0 0 49.260012631387845 49.26001263138785"><g id="original-90020"><svg xmlns="http://www.w3.org/2000/svg" viewBox="0 0 512 512" xmlns:xlink="http://www.w3.org/1999/xlink" version="1.1" preserveAspectRatio="xMidYMid meet">
  <path d="M255.984 272.002a31.824 31.824 0 0 1-20.469-7.438c-13.578-11.313-15.406-31.469-4.094-45.063l159.984-192c11.312-13.563 31.469-15.406 45.094-4.063 13.562 11.313 15.406 31.469 4.094 45.063l-160.016 192a32 32 0 0 1-24.593 11.501zM512 240.001v32c0 17.688-14.312 32-32 32l-32 192H64l-32-192c-17.672 0-32-14.313-32-32v-32c0-17.688 14.328-32 32-32h188.188l-1.063 1.281c-16.938 20.344-14.188 50.656 6.156 67.594a47.983 47.983 0 0 0 30.703 11.125c14.297 0 27.734-6.281 36.891-17.25l52.281-62.75H480c17.688 0 32 14.313 32 32zM144 352.002c0-8.844-7.156-16-16-16s-16 7.156-16 16v96c0 8.844 7.156 16 16 16 8.844 0 16-7.156 16-16v-96zm64 0c0-8.844-7.156-16-16-16s-16 7.156-16 16v96c0 8.844 7.156 16 16 16s16-7.156 16-16v-96zm64 0c0-8.844-7.156-16-16-16s-16 7.156-16 16v96c0 8.844 7.156 16 16 16s16-7.156 16-16v-96zm64 0c0-8.844-7.156-16-16-16s-16 7.156-16 16v96c0 8.844 7.156 16 16 16s16-7.156 16-16v-96zm64 0c0-8.844-7.156-16-16-16s-16 7.156-16 16v96c0 8.844 7.156 16 16 16s16-7.156 16-16v-96z" fill="rgba(224, 224, 224, 0.4)" stroke="none"/>
</svg>
</g></svg></g></g>
<!-- /image 90020 -->

<!-- image 99533 -->
<g id="transformed-99533" data-image="99533" transform="translate(20.09038797634914, 35.50694642444374) rotate(330, 29.139612023650855, 29.023053575556258)"><g><svg version="1.1" width="58.27922404730171px" height="58.046107151112516px" viewBox="0 0 58.27922404730171 58.046107151112516"><g id="original-99533"><svg xmlns="http://www.w3.org/2000/svg" viewBox="0 0 485.213 485.212" xmlns:xlink="http://www.w3.org/1999/xlink" version="1.1" preserveAspectRatio="xMidYMid meet">
  <path d="M424.562 151.628h-93.285C322.274 62.665 287.178 0 242.607 0c-44.599 0-79.665 62.665-88.67 151.628H60.652L.001 485.212h485.211l-60.65-333.584zM242.607 30.327c23.807 0 49.723 49.723 57.839 121.302H184.768c8.116-71.58 34.03-121.302 57.839-121.302zM85.945 181.955h313.294l49.639 272.931H36.339l49.606-272.931z" fill="rgba(224, 224, 224, 0.5)" stroke="none"/>
  <path d="M166.795 204.7c-12.559 0-22.745 10.186-22.745 22.745 0 12.557 10.186 22.743 22.745 22.743 12.554 0 22.743-10.186 22.743-22.743 0-12.559-10.188-22.745-22.743-22.745z" fill="rgba(224, 224, 224, 0.5)" stroke="none"/>
  <path d="M318.424 204.7c-12.559 0-22.747 10.186-22.747 22.745 0 12.557 10.188 22.743 22.747 22.743 12.555 0 22.738-10.186 22.738-22.743 0-12.559-10.183-22.745-22.738-22.745z" fill="rgba(224, 224, 224, 0.5)" stroke="none"/>
</svg>
</g></svg></g></g>
<!-- /image 99533 -->

<!-- image 62565 -->
<g id="transformed-62565" data-image="62565" transform="translate(269.5275679734915, 41.047567973491454) rotate(0, 27.262432026508527, 27.262432026508545)"><g><svg version="1.1" width="54.524864053017055px" height="54.52486405301709px" viewBox="0 0 54.524864053017055 54.52486405301709"><g id="original-62565"><svg xmlns="http://www.w3.org/2000/svg" viewBox="0 0 512 512" xmlns:xlink="http://www.w3.org/1999/xlink" version="1.1" preserveAspectRatio="xMidYMid meet">
  <path d="M0 208c0 29.781 20.438 54.594 48 61.75V480H16c-8.813 0-16 7.156-16 16s7.188 16 16 16h480c8.875 0 16-7.156 16-16s-7.125-16-16-16h-32V269.75c27.562-7.156 48-31.969 48-61.75v-16H0v16zm320 64c35.375 0 64-28.656 64-64 0 29.781 20.438 54.594 48 61.75V480H192V272c35.375 0 64-28.656 64-64 0 35.344 28.688 64 64 64zm-144-2.25V480H80V269.75c27.563-7.156 48-31.969 48-61.75 0 29.781 20.438 54.594 48 61.75zM448 48H64L0 176h512L448 48zM135.188 83.563l-32 64c-1.438 2.813-4.25 4.438-7.188 4.438a7.744 7.744 0 0 1-3.563-.844c-3.938-1.969-5.563-6.781-3.563-10.719l32-64c2-3.938 6.781-5.531 10.719-3.594 3.97 1.969 5.532 6.781 3.595 10.719zm64 0l-32 64c-1.438 2.813-4.25 4.438-7.188 4.438a7.744 7.744 0 0 1-3.563-.844c-3.938-1.969-5.563-6.781-3.563-10.719l32-64c2-3.938 6.813-5.531 10.719-3.594 3.97 1.969 5.532 6.781 3.595 10.719zM264 144c0 4.438-3.562 8-8 8-4.406 0-8-3.563-8-8V80c0-4.438 3.594-8 8-8 4.438 0 8 3.563 8 8v64zm91.875 7c-1.25.688-2.562 1-3.875 1-2.812 0-5.562-1.5-7-4.156l-35-64c-2.125-3.875-.688-8.75 3.188-10.844 3.813-2.125 8.75-.75 10.875 3.156l35 64c2.062 3.875.687 8.75-3.188 10.844zm63.687.156c-1.124.594-2.312.844-3.562.844a7.909 7.909 0 0 1-7.125-4.438l-32-64c-2-3.938-.375-8.75 3.562-10.719 3.875-1.969 8.75-.375 10.75 3.594l32 64c1.938 3.938.375 8.751-3.625 10.719zM136 386.438v-36.875c-4.688-2.812-8-7.688-8-13.562 0-8.844 7.188-16 16-16 8.875 0 16 7.156 16 16 0 5.875-3.281 10.75-8 13.562v36.875c4.719 2.813 8 7.688 8 13.563 0 8.844-7.125 16-16 16-8.813 0-16-7.156-16-16 0-5.876 3.313-10.751 8-13.563zM64 16c0-8.844 7.188-16 16-16h352c8.875 0 16 7.156 16 16s-7.125 16-16 16H80c-8.812 0-16-7.156-16-16zm216.438 341.656l-11.312-11.313 45.25-45.25 11.312 11.313-45.25 45.25zm0 45.25l-11.312-11.313 90.5-90.5 11.312 11.313-90.5 90.5zm79.187-56.562l11.312 11.313-45.25 45.25-11.312-11.313 45.25-45.25z" fill="rgba(224, 224, 224, 0.5)" stroke="none"/>
</svg>
</g></svg></g></g>
<!-- /image 62565 -->

<!-- image 20781 -->
<g id="transformed-20781" data-image="20781" transform="translate(396.91009094103305, 151.76177639548726) rotate(22, 28.58990905896694, 28.50822360451274)"><g transform="translate(57.17981811793388, 0) scale(-1, 1)"><svg version="1.1" width="57.17981811793388px" height="57.01644720902548px" viewBox="0 0 57.17981811793388 57.01644720902548"><g id="original-20781"><svg xmlns="http://www.w3.org/2000/svg" viewBox="0 0 512.001 512" xmlns:xlink="http://www.w3.org/1999/xlink" version="1.1" preserveAspectRatio="xMidYMid meet">
  <path d="M496.001 0h-80c-7.719 0-14.344 5.531-15.75 13.125L391.001 64h-375a16.045 16.045 0 0 0-13.313 7.125 15.98 15.98 0 0 0-1.453 15.031l80 192A15.99 15.99 0 0 0 96.001 288h254.281l-11.625 64H128.001c-8.844 0-16 7.156-16 16s7.156 16 16 16h224c7.719 0 14.344-5.531 15.75-13.125L429.345 32h66.656c8.844 0 16-7.156 16-16s-7.156-16-16-16zM385.188 96l-11.625 64h-85.562V96h97.187zm-129.187 0v64h-64V96h64zm-96 0v64H66.673L40.001 96h120zm-53.328 160l-26.672-64h80v64h-53.328zm85.328 0v-64h64v64h-64zm96 0v-64h79.75l-11.656 64h-68.094z" fill="rgba(224, 224, 224, 0.4)" stroke="none"/>
  <path d="M176.001 416c-26.5 0-48 21.469-48 48s21.5 48 48 48 48-21.469 48-48-21.5-48-48-48z" fill="rgba(224, 224, 224, 0.4)" stroke="none"/>
  <path d="M304.001 416c-26.531 0-48 21.469-48 48s21.469 48 48 48 48-21.469 48-48-21.469-48-48-48z" fill="rgba(224, 224, 224, 0.4)" stroke="none"/>
</svg>
</g></svg></g></g>
<!-- /image 20781 -->

<!-- image 12743 -->
<g id="transformed-12743" data-image="12743" transform="translate(139.904678445972, 137.86467844597198) rotate(329, 28.945321554027988, 28.945321554028016)"><g><svg version="1.1" width="57.890643108055976px" height="57.89064310805603px" viewBox="0 0 57.890643108055976 57.89064310805603"><g id="original-12743"><svg xmlns="http://www.w3.org/2000/svg" viewBox="0 0 512 512" xmlns:xlink="http://www.w3.org/1999/xlink" version="1.1" preserveAspectRatio="xMidYMid meet">
  <path d="M322.213 30H271V0h-30v30h-51.213L91 128.787V512h330V128.787L322.213 30zM256 120c8.271 0 15 6.729 15 15s-6.729 15-15 15-15-6.729-15-15 6.729-15 15-15zm135 362H121V141.213L202.213 60H241v32.58c-17.459 6.192-30 22.865-30 42.42 0 24.813 20.187 45 45 45s45-20.187 45-45c0-19.555-12.541-36.228-30-42.42V60h38.787L391 141.213V482z" fill="rgba(224, 224, 224, 0.5)" stroke="none"/>
  <path d="M170.4 406.387L320.395 256.39l21.213 21.213L191.613 427.6z" fill="rgba(224, 224, 224, 0.5)" stroke="none"/>
  <path d="M316 362c-24.813 0-45 20.187-45 45s20.187 45 45 45 45-20.187 45-45-20.187-45-45-45zm0 60c-8.271 0-15-6.729-15-15s6.729-15 15-15 15 6.729 15 15-6.729 15-15 15z" fill="rgba(224, 224, 224, 0.5)" stroke="none"/>
  <path d="M196 232c-24.813 0-45 20.187-45 45s20.187 45 45 45 45-20.187 45-45-20.187-45-45-45zm0 60c-8.271 0-15-6.729-15-15s6.729-15 15-15 15 6.729 15 15-6.729 15-15 15z" fill="rgba(224, 224, 224, 0.5)" stroke="none"/>
</svg>
</g></svg></g></g>
<!-- /image 12743 -->

<!-- image 14219 -->
<g id="transformed-14219" data-image="14219" transform="translate(163.97438563883145, 51.62438563883146) rotate(16, 29.68561436116854, 29.68561436116854)"><g><svg version="1.1" width="59.37122872233708px" height="59.37122872233708px" viewBox="0 0 59.37122872233708 59.37122872233708"><g id="original-14219"><svg xmlns="http://www.w3.org/2000/svg" viewBox="0 0 511.999 511.999" xmlns:xlink="http://www.w3.org/1999/xlink" version="1.1" preserveAspectRatio="xMidYMid meet">
  <path d="M484.684 116.809h-71.022c11.595-12.57 18.694-29.348 18.694-47.757 0 0-.014-2.81-.041-3.612-.767-22.718-13.156-42.978-33.139-54.2-20.387-11.446-44.674-11.443-64.967.011l-32.3 18.229C281.68 40.897 265.849 58.105 256 78.339c-9.849-20.234-25.68-37.442-45.908-48.858l-32.3-18.231c-20.293-11.453-44.58-11.457-64.967-.011-19.983 11.221-32.372 31.482-33.139 54.2-.027.802-.041 3.612-.041 3.612 0 18.409 7.099 35.187 18.694 47.758H27.316C12.254 116.809 0 129.064 0 144.126v64.834c0 15.062 12.254 27.316 27.316 27.316h12.506v245.751c0 15.062 12.254 27.316 27.316 27.316h377.723c15.062 0 27.316-12.254 27.316-27.316V236.275h12.506c15.062 0 27.316-12.254 27.316-27.316v-64.834c.001-15.061-12.253-27.316-27.315-27.316zM313.093 49.297l32.3-18.229c13.309-7.512 29.25-7.506 42.642.014 12.99 7.293 21.041 20.424 21.537 35.127.018.546.027 2.843.027 2.843 0 26.334-21.424 47.758-47.758 47.758h-93.813c3.411-28.148 20.027-53.383 45.065-67.513zM102.427 66.208c.497-14.702 8.548-27.833 21.537-35.127 6.702-3.763 14.038-5.643 21.366-5.643 7.317 0 14.626 1.876 21.275 5.63l32.3 18.229c25.038 14.13 41.654 39.365 45.064 67.511h-93.813c-26.333 0-47.757-21.424-47.757-47.757.001.001.01-2.297.028-2.843zm102.374 204.68h-46.842c-6.284 0-11.378 5.095-11.378 11.378s5.094 11.378 11.378 11.378h46.842v192.943H67.138a4.564 4.564 0 0 1-4.56-4.559V236.275h142.223v34.613zm0-57.367H27.316a4.566 4.566 0 0 1-4.56-4.56v-64.834a4.565 4.565 0 0 1 4.56-4.561h177.485v73.955zm79.641 273.065h-56.885V139.564h56.885v347.022zm164.98-4.559a4.565 4.565 0 0 1-4.56 4.56H307.198V293.643h43.355c6.284 0 11.378-5.095 11.378-11.378s-5.094-11.378-11.378-11.378h-43.355v-34.612h142.225v245.752zm39.822-273.066a4.566 4.566 0 0 1-4.56 4.56H307.198v-73.956h177.487a4.566 4.566 0 0 1 4.56 4.561v64.835z" fill="rgba(224, 224, 224, 0.5)" stroke="none"/>
  <path d="M404.598 293.643h1.138c6.284 0 11.378-5.095 11.378-11.378s-5.094-11.378-11.378-11.378h-1.138c-6.284 0-11.378 5.095-11.378 11.378.001 6.283 5.094 11.378 11.378 11.378z" fill="rgba(224, 224, 224, 0.5)" stroke="none"/>
  <path d="M102.778 293.643h1.138c6.284 0 11.378-5.095 11.378-11.378s-5.095-11.378-11.378-11.378h-1.138c-6.284 0-11.378 5.095-11.378 11.378s5.094 11.378 11.378 11.378z" fill="rgba(224, 224, 224, 0.5)" stroke="none"/>
</svg>
</g></svg></g></g>
<!-- /image 14219 -->

<!-- image 41809 -->
<g id="transformed-41809" data-image="41809" transform="translate(287.64648030546454, 156.87648030546455) rotate(7, 34.10351969453546, 34.10351969453544)"><g><svg version="1.1" width="68.20703938907091px" height="68.20703938907089px" viewBox="0 0 68.20703938907091 68.20703938907089"><g id="original-41809"><svg xmlns="http://www.w3.org/2000/svg" viewBox="0 0 60 60" xmlns:xlink="http://www.w3.org/1999/xlink" version="1.1" preserveAspectRatio="xMidYMid meet">
  <path d="M41.5 49c-2.206 0-4 1.794-4 4s1.794 4 4 4 4-1.794 4-4-1.794-4-4-4zm0 6c-1.103 0-2-.897-2-2s.897-2 2-2 2 .897 2 2-.897 2-2 2z" fill="rgba(224, 224, 224, 0.5)" stroke="none"/>
  <path d="M37.5 5h4a1 1 0 1 0 0-2h-4a1 1 0 1 0 0 2z" fill="rgba(224, 224, 224, 0.5)" stroke="none"/>
  <path d="M44.5 5h1a1 1 0 1 0 0-2h-1a1 1 0 1 0 0 2z" fill="rgba(224, 224, 224, 0.5)" stroke="none"/>
  <path d="M54.095 0h-25.19A4.41 4.41 0 0 0 24.5 4.405v9.534c-5.254 2.019-9 7.104-9 13.061 0 3.258 1.128 6.253 3.002 8.634L1.816 51.271a1 1 0 1 0 1.368 1.458l16.663-15.615a14.014 14.014 0 0 0 4.653 2.947v15.534A4.41 4.41 0 0 0 28.905 60h25.189a4.41 4.41 0 0 0 4.405-4.405V4.405A4.409 4.409 0 0 0 54.095 0zm-25.19 2h25.189A2.408 2.408 0 0 1 56.5 4.405V6h-30V4.405A2.408 2.408 0 0 1 28.905 2zM17.5 27c0-5.339 3.507-9.87 8.336-11.423.158-.051.318-.09.477-.134.185-.051.37-.102.558-.144.162-.037.325-.067.489-.097.213-.039.427-.072.644-.099.136-.017.272-.036.408-.048.359-.033.721-.055 1.088-.055 6.617 0 12 5.383 12 12s-5.383 12-12 12c-.367 0-.729-.022-1.088-.055-.136-.013-.272-.031-.408-.048a14.077 14.077 0 0 1-1.133-.196c-.188-.042-.373-.093-.558-.144-.159-.044-.319-.083-.477-.134C21.007 36.87 17.5 32.339 17.5 27zm10.3 13.886c.071.009.142.025.214.033.489.052.984.081 1.486.081 7.72 0 14-6.28 14-14s-6.28-14-14-14c-.502 0-.997.029-1.486.081-.072.008-.142.024-.214.033-.422.051-.84.117-1.25.205-.017.004-.033.005-.05.008V8h30v38h-30v-5.327c.017.003.033.004.05.008.41.089.828.154 1.25.205zM54.095 58h-25.19a2.408 2.408 0 0 1-2.405-2.405V48h30v7.595A2.408 2.408 0 0 1 54.095 58z" fill="rgba(224, 224, 224, 0.5)" stroke="none"/>
</svg>
</g></svg></g></g>
<!-- /image 41809 -->

<!-- image 98483 -->
<g id="transformed-98483" data-image="98483" transform="translate(43.80555206021182, 187.46555206021182) rotate(16, 24.194447939788184, 24.194447939788187)"><g><svg version="1.1" width="48.38889587957637px" height="48.388895879576374px" viewBox="0 0 48.38889587957637 48.388895879576374"><g id="original-98483"><svg xmlns="http://www.w3.org/2000/svg" viewBox="0 0 511.999 511.999" xmlns:xlink="http://www.w3.org/1999/xlink" version="1.1" preserveAspectRatio="xMidYMid meet">
  <path d="M481.091 27.937H30.909C13.866 27.937 0 41.803 0 58.846v310.819c0 17.043 13.866 30.909 30.909 30.909h154.26v22.49c0 20.617-16.774 37.391-37.391 37.391h-33.997c-6.518 0-11.803 5.284-11.803 11.803 0 6.519 5.285 11.803 11.803 11.803h284.436c6.518 0 11.803-5.284 11.803-11.803 0-6.519-5.285-11.803-11.803-11.803h-33.998c-20.617 0-37.391-16.774-37.391-37.391v-22.489h154.26c17.043 0 30.91-13.866 30.91-30.909V58.846c.002-17.043-13.864-30.909-30.907-30.909zM195.92 460.457c8.046-10.336 12.857-23.308 12.857-37.391v-22.49h94.447v22.49c0 14.083 4.811 27.056 12.857 37.391H195.92zm292.474-90.791c0 4.027-3.276 7.304-7.304 7.304H30.909c-4.027 0-7.304-3.276-7.304-7.304v-62.033h464.789v62.033zm0-85.64H23.606V58.846c0-4.027 3.276-7.304 7.304-7.304h450.18c4.027 0 7.305 3.276 7.305 7.304v225.18z" fill="rgba(224, 224, 224, 0.5)" stroke="none"/>
  <circle cx="256.003" cy="342.305" r="12.738" fill="rgba(224, 224, 224, 0.5)" stroke="none"/>
  <path d="M276.238 109.254c-4.61-4.609-12.081-4.609-16.693 0l-83.414 83.414c-4.609 4.609-4.609 12.083 0 16.693a11.767 11.767 0 0 0 8.347 3.457c3.022 0 6.041-1.152 8.346-3.457l83.414-83.414c4.609-4.609 4.609-12.083 0-16.693z" fill="rgba(224, 224, 224, 0.5)" stroke="none"/>
  <path d="M325.678 157.593c-4.608-4.609-12.079-4.609-16.692-.001l-33.23 33.228c-4.609 4.61-4.609 12.084 0 16.693a11.765 11.765 0 0 0 8.346 3.457c3.02 0 6.041-1.152 8.346-3.457l33.23-33.228c4.609-4.609 4.609-12.083 0-16.692z" fill="rgba(224, 224, 224, 0.5)" stroke="none"/>
</svg>
</g></svg></g></g>
<!-- /image 98483 -->

<!-- image 55724 -->
<g id="transformed-55724" data-image="55724" transform="translate(78.82608986150845, 102.31608986150846) rotate(2, 21.343910138491545, 21.343910138491538)"><g><svg version="1.1" width="42.68782027698309px" height="42.687820276983075px" viewBox="0 0 42.68782027698309 42.687820276983075"><g id="original-55724"><svg xmlns="http://www.w3.org/2000/svg" viewBox="0 0 51.619 51.619" xmlns:xlink="http://www.w3.org/1999/xlink" version="1.1" preserveAspectRatio="xMidYMid meet">
  <path d="M50.14 19.206a.999.999 0 0 0-1.414 0L21.432 46.5a10.617 10.617 0 0 1-7.563 3.119c-2.867 0-5.553-1.107-7.564-3.119s-3.119-4.697-3.119-7.564c0-2.866 1.107-5.552 3.119-7.563L33.598 4.078c2.897-2.896 7.445-2.719 10.579.413 3.133 3.133 3.311 7.682.414 10.579l-25.64 25.641a3.685 3.685 0 0 1-5.203 0 3.684 3.684 0 0 1 0-5.203l17.369-17.369a.999.999 0 1 0-1.414-1.414L12.334 34.093a5.685 5.685 0 0 0 0 8.031 5.685 5.685 0 0 0 8.031 0l25.641-25.641c3.703-3.704 3.525-9.468-.414-13.407-3.938-3.938-9.703-4.117-13.407-.413L4.89 29.958c-2.39 2.389-3.705 5.577-3.705 8.978s1.315 6.59 3.705 8.979c2.389 2.39 5.577 3.705 8.979 3.705 3.4 0 6.589-1.315 8.978-3.705L50.14 20.62a.999.999 0 0 0 0-1.414z" fill="rgba(224, 224, 224, 0.5)" stroke="none"/>
</svg>
</g></svg></g></g>
<!-- /image 55724 -->

<!-- image 12299 -->
<g id="transformed-12299" data-image="12299" transform="translate(342.6249141208946, 82.27491412089458) rotate(30, 26.895085879105416, 26.895085879105427)"><g><svg version="1.1" width="53.79017175821083px" height="53.79017175821085px" viewBox="0 0 53.79017175821083 53.79017175821085"><g id="original-12299"><svg xmlns="http://www.w3.org/2000/svg" viewBox="0 0 512 512" xmlns:xlink="http://www.w3.org/1999/xlink" version="1.1" preserveAspectRatio="xMidYMid meet">
  <path d="M491.797 348.594L266.656 229.656V214.64c.094-.023.188-.055.297-.078 35.469-8.781 59.281-30.875 59.281-59.281 0-32.742-26.547-59.281-59.281-59.281-30.234 0-56.516 22.125-59.109 51.773a8.232 8.232 0 0 0-.125 1.391c0 .055-.016.109-.016.172 0 5.891 4.781 10.664 10.672 10.664s10.672-4.773 10.672-10.664h.062c.859-9.227 5.344-15.844 9.281-19.969 7.281-7.648 17.703-12.031 28.562-12.031 20.922 0 37.938 17.023 37.938 37.945 0 7.984-3.328 15.305-9.922 21.758-7.703 7.539-19.156 13.352-33.141 16.812 0 0-16.203 5-16.484 5.102v3.711h-.016v26.992L20.219 348.594C8.141 354.812 0 366.5 0 379.906 0 399.844 18.016 416 40.234 416H471.781C494 416 512 399.844 512 379.906c0-13.406-8.125-25.094-20.203-31.312zm-20.016 46.062H40.235c-10.234 0-18.891-6.75-18.891-14.75 0-4.938 3.234-9.562 8.656-12.375l.094-.031.094-.062 225.797-119.289 225.844 119.289.094.062.094.031c5.422 2.812 8.656 7.438 8.656 12.375-.001 8-8.657 14.75-18.892 14.75z" fill="rgba(224, 224, 224, 0.5)" stroke="none"/>
</svg>
</g></svg></g></g>
<!-- /image 12299 -->

<!-- image 72217 -->
<g id="transformed-72217" data-image="72217" transform="translate(105.00060159247164, -20.679398407528353) rotate(345, 34.99939840752835, 34.99939840752835)"><g><svg version="1.1" width="69.9987968150567px" height="69.9987968150567px" viewBox="0 0 69.9987968150567 69.9987968150567"><g id="original-72217"><svg xmlns="http://www.w3.org/2000/svg" viewBox="0 0 512 512" xmlns:xlink="http://www.w3.org/1999/xlink" version="1.1" preserveAspectRatio="xMidYMid meet">
  <path d="M362.672 42.66h-53.328c0 29.414-23.938 53.336-53.344 53.336s-53.328-23.922-53.328-53.336h-53.336L0 127.996l42.672 117.336 64-21.336V469.34h298.672V223.996l64 21.336L512 127.996 362.672 42.66zm93.703 175.867l-44.297-14.766L384 194.395v253.602H128V194.395l-28.078 9.367-44.297 14.766-29.43-80.93L155 63.996h29.43c9.18 30.844 37.75 53.336 71.57 53.336 33.828 0 62.391-22.492 71.562-53.336H357l128.812 73.602-29.437 80.929z" fill="rgba(224, 224, 224, 0.5)" stroke="none"/>
</svg>
</g></svg></g></g>
<!-- /image 72217 -->

<!-- image 40035 -->
<g id="transformed-40035" data-image="40035" transform="translate(204.45609103107918, 168.3260910310792) rotate(8, 32.82390896892082, 32.823908968920826)"><g><svg version="1.1" width="65.64781793784164px" height="65.64781793784165px" viewBox="0 0 65.64781793784164 65.64781793784165"><g id="original-40035"><svg xmlns="http://www.w3.org/2000/svg" viewBox="0 0 512 512" xmlns:xlink="http://www.w3.org/1999/xlink" version="1.1" preserveAspectRatio="xMidYMid meet">
  <path d="M409.353 503.258c-.044-.476-4.483-48.265-18.333-110.055-22.787-101.665-53.492-164.317-75.697-199.399V162.85l25.448-110.275a7.996 7.996 0 0 0 .044-3.373l.005-.001-8.55-42.756A8.015 8.015 0 0 0 324.409 0h-25.653a8.017 8.017 0 0 0-8.017 8.017v40.967c-11.791 5.055-24.121 13.702-34.395 28.314-.077.11-.335.111-.345.111-.011 0-.268-.001-.345-.111-10.273-14.612-22.602-23.258-34.393-28.313V8.017A8.017 8.017 0 0 0 213.244 0h-25.652a8.017 8.017 0 0 0-7.861 6.444L171.179 49.2l.005.001a7.996 7.996 0 0 0 .044 3.373l25.448 110.276.001 30.953c-22.206 35.082-52.91 97.734-75.698 199.399-13.85 61.791-18.289 109.58-18.333 110.055a8.016 8.016 0 0 0 7.984 8.742h290.74a8.017 8.017 0 0 0 7.983-8.741zM306.772 16.033h11.065l5.234 26.176a88.195 88.195 0 0 0-16.3 1.774v-27.95zm-112.609 0h11.064v27.951a88.013 88.013 0 0 0-16.299-1.774l5.235-26.177zm-5.168 42.231c12.694.284 36.699 4.301 53.542 28.256 3.047 4.334 8.08 6.922 13.462 6.922s10.413-2.588 13.461-6.922c16.958-24.119 40.877-28.073 53.555-28.301l-22.086 95.701H211.07l-22.075-95.656zm110.296 111.69v18.171h-86.58v-18.171h86.58zM119.564 495.967c4.438-37.788 25.666-189.61 89.549-291.808h11.888l-15.682 101.929a8.017 8.017 0 0 0 15.846 2.439l16.058-104.368h10.759v163.006a8.017 8.017 0 0 0 16.034 0V204.159h10.759l16.056 104.368a8.016 8.016 0 1 0 15.846-2.439l-15.681-101.929h11.889c63.843 102.138 85.101 254.008 89.548 291.808H119.564z" fill="rgba(224, 224, 224, 0.5)" stroke="none"/>
</svg>
</g></svg></g></g>
<!-- /image 40035 -->

<!-- image 59098 -->
<g id="transformed-59098" data-image="59098" transform="translate(242.45300672155545, 117.45300672155545) rotate(355, 15.546993278444557, 15.54699327844455)"><g><svg version="1.1" width="31.093986556889114px" height="31.0939865568891px" viewBox="0 0 31.093986556889114 31.0939865568891"><g id="original-59098"><svg xmlns="http://www.w3.org/2000/svg" viewBox="0 0 55.25 55.25" xmlns:xlink="http://www.w3.org/1999/xlink" version="1.1" preserveAspectRatio="xMidYMid meet">
  <path d="M52.618 2.631c-3.51-3.508-9.219-3.508-12.729 0L3.827 38.693c-.017.017-.027.038-.042.056-.021.024-.039.05-.058.076a.972.972 0 0 0-.125.239c-.009.026-.022.049-.029.075l-.012.03-3.535 14.85a.991.991 0 0 0-.022.202c0 .013-.004.025-.004.038a.995.995 0 0 0 .095.403c.049.107.11.21.196.296a1.006 1.006 0 0 0 .938.266l14.85-3.535c.027-.006.051-.021.077-.03a.985.985 0 0 0 .3-.162c.024-.019.049-.033.072-.054.008-.008.018-.012.026-.02L52.617 15.36c3.51-3.51 3.51-9.22.001-12.729zm-1.414 1.414c2.488 2.489 2.7 6.397.65 9.137l-9.787-9.787c2.741-2.05 6.649-1.838 9.137.65zm-4.95 14.85l-9.9-9.9 1.414-1.414 9.9 9.9-1.414 1.414zM4.961 50.288a.999.999 0 0 0-1.414 0l-.757.757 2.554-10.728 4.422-.491-.569 5.122c-.004.038.01.073.01.11 0 .038-.014.072-.01.11.004.033.021.06.028.092a1.016 1.016 0 0 0 .245.473c.048.051.1.094.157.134.045.031.088.06.138.084.066.031.135.049.207.066.038.009.069.03.108.035a.982.982 0 0 0 .109.006h.004a.995.995 0 0 0 .109-.006l5.122-.569-.491 4.422-10.729 2.554.757-.757a1 1 0 0 0 0-1.414zm12.55-5.479L39.889 22.43a.999.999 0 1 0-1.414-1.414L16.097 43.395l-4.773.53.53-4.773 22.38-22.378a.999.999 0 1 0-1.414-1.414L10.44 37.738l-3.183.354L34.94 10.409l9.9 9.9-27.683 27.683.354-3.183zm31.571-28.742l-9.9-9.9 1.415-1.415 9.9 9.9-1.415 1.415z" fill="rgba(224, 224, 224, 0.5)" stroke="none"/>
</svg>
</g></svg></g></g>
<!-- /image 59098 -->
</defs><rect x="0" y="0" width="439.5" height="222.66" fill="rgba(255, 255, 255, 1)"></rect><use xlink:href="#transformed-90020" transform="translate(-439.5, -222.66)"></use><use xlink:href="#transformed-90020" transform="translate(0, -222.66)"></use><use xlink:href="#transformed-90020" transform="translate(439.5, -222.66)"></use><use xlink:href="#transformed-90020" transform="translate(-439.5, 0)"></use><use xlink:href="#transformed-90020" transform="translate(0, 0)"></use><use xlink:href="#transformed-90020" transform="translate(439.5, 0)"></use><use xlink:href="#transformed-90020" transform="translate(-439.5, 222.66)"></use><use xlink:href="#transformed-90020" transform="translate(0, 222.66)"></use><use xlink:href="#transformed-90020" transform="translate(439.5, 222.66)"></use><use xlink:href="#transformed-99533" transform="translate(-439.5, -222.66)"></use><use xlink:href="#transformed-99533" transform="translate(0, -222.66)"></use><use xlink:href="#transformed-99533" transform="translate(439.5, -222.66)"></use><use xlink:href="#transformed-99533" transform="translate(-439.5, 0)"></use><use xlink:href="#transformed-99533" transform="translate(0, 0)"></use><use xlink:href="#transformed-99533" transform="translate(439.5, 0)"></use><use xlink:href="#transformed-99533" transform="translate(-439.5, 222.66)"></use><use xlink:href="#transformed-99533" transform="translate(0, 222.66)"></use><use xlink:href="#transformed-99533" transform="translate(439.5, 222.66)"></use><use xlink:href="#transformed-62565" transform="translate(-439.5, -222.66)"></use><use xlink:href="#transformed-62565" transform="translate(0, -222.66)"></use><use xlink:href="#transformed-62565" transform="translate(439.5, -222.66)"></use><use xlink:href="#transformed-62565" transform="translate(-439.5, 0)"></use><use xlink:href="#transformed-62565" transform="translate(0, 0)"></use><use xlink:href="#transformed-62565" transform="translate(439.5, 0)"></use><use xlink:href="#transformed-62565" transform="translate(-439.5, 222.66)"></use><use xlink:href="#transformed-62565" transform="translate(0, 222.66)"></use><use xlink:href="#transformed-62565" transform="translate(439.5, 222.66)"></use><use xlink:href="#transformed-20781" transform="translate(-439.5, -222.66)"></use><use xlink:href="#transformed-20781" transform="translate(0, -222.66)"></use><use xlink:href="#transformed-20781" transform="translate(439.5, -222.66)"></use><use xlink:href="#transformed-20781" transform="translate(-439.5, 0)"></use><use xlink:href="#transformed-20781" transform="translate(0, 0)"></use><use xlink:href="#transformed-20781" transform="translate(439.5, 0)"></use><use xlink:href="#transformed-20781" transform="translate(-439.5, 222.66)"></use><use xlink:href="#transformed-20781" transform="translate(0, 222.66)"></use><use xlink:href="#transformed-20781" transform="translate(439.5, 222.66)"></use><use xlink:href="#transformed-12743" transform="translate(-439.5, -222.66)"></use><use xlink:href="#transformed-12743" transform="translate(0, -222.66)"></use><use xlink:href="#transformed-12743" transform="translate(439.5, -222.66)"></use><use xlink:href="#transformed-12743" transform="translate(-439.5, 0)"></use><use xlink:href="#transformed-12743" transform="translate(0, 0)"></use><use xlink:href="#transformed-12743" transform="translate(439.5, 0)"></use><use xlink:href="#transformed-12743" transform="translate(-439.5, 222.66)"></use><use xlink:href="#transformed-12743" transform="translate(0, 222.66)"></use><use xlink:href="#transformed-12743" transform="translate(439.5, 222.66)"></use><use xlink:href="#transformed-14219" transform="translate(-439.5, -222.66)"></use><use xlink:href="#transformed-14219" transform="translate(0, -222.66)"></use><use xlink:href="#transformed-14219" transform="translate(439.5, -222.66)"></use><use xlink:href="#transformed-14219" transform="translate(-439.5, 0)"></use><use xlink:href="#transformed-14219" transform="translate(0, 0)"></use><use xlink:href="#transformed-14219" transform="translate(439.5, 0)"></use><use xlink:href="#transformed-14219" transform="translate(-439.5, 222.66)"></use><use xlink:href="#transformed-14219" transform="translate(0, 222.66)"></use><use xlink:href="#transformed-14219" transform="translate(439.5, 222.66)"></use><use xlink:href="#transformed-41809" transform="translate(-439.5, -222.66)"></use><use xlink:href="#transformed-41809" transform="translate(0, -222.66)"></use><use xlink:href="#transformed-41809" transform="translate(439.5, -222.66)"></use><use xlink:href="#transformed-41809" transform="translate(-439.5, 0)"></use><use xlink:href="#transformed-41809" transform="translate(0, 0)"></use><use xlink:href="#transformed-41809" transform="translate(439.5, 0)"></use><use xlink:href="#transformed-41809" transform="translate(-439.5, 222.66)"></use><use xlink:href="#transformed-41809" transform="translate(0, 222.66)"></use><use xlink:href="#transformed-41809" transform="translate(439.5, 222.66)"></use><use xlink:href="#transformed-98483" transform="translate(-439.5, -222.66)"></use><use xlink:href="#transformed-98483" transform="translate(0, -222.66)"></use><use xlink:href="#transformed-98483" transform="translate(439.5, -222.66)"></use><use xlink:href="#transformed-98483" transform="translate(-439.5, 0)"></use><use xlink:href="#transformed-98483" transform="translate(0, 0)"></use><use xlink:href="#transformed-98483" transform="translate(439.5, 0)"></use><use xlink:href="#transformed-98483" transform="translate(-439.5, 222.66)"></use><use xlink:href="#transformed-98483" transform="translate(0, 222.66)"></use><use xlink:href="#transformed-98483" transform="translate(439.5, 222.66)"></use><use xlink:href="#transformed-55724" transform="translate(-439.5, -222.66)"></use><use xlink:href="#transformed-55724" transform="translate(0, -222.66)"></use><use xlink:href="#transformed-55724" transform="translate(439.5, -222.66)"></use><use xlink:href="#transformed-55724" transform="translate(-439.5, 0)"></use><use xlink:href="#transformed-55724" transform="translate(0, 0)"></use><use xlink:href="#transformed-55724" transform="translate(439.5, 0)"></use><use xlink:href="#transformed-55724" transform="translate(-439.5, 222.66)"></use><use xlink:href="#transformed-55724" transform="translate(0, 222.66)"></use><use xlink:href="#transformed-55724" transform="translate(439.5, 222.66)"></use><use xlink:href="#transformed-12299" transform="translate(-439.5, -222.66)"></use><use xlink:href="#transformed-12299" transform="translate(0, -222.66)"></use><use xlink:href="#transformed-12299" transform="translate(439.5, -222.66)"></use><use xlink:href="#transformed-12299" transform="translate(-439.5, 0)"></use><use xlink:href="#transformed-12299" transform="translate(0, 0)"></use><use xlink:href="#transformed-12299" transform="translate(439.5, 0)"></use><use xlink:href="#transformed-12299" transform="translate(-439.5, 222.66)"></use><use xlink:href="#transformed-12299" transform="translate(0, 222.66)"></use><use xlink:href="#transformed-12299" transform="translate(439.5, 222.66)"></use><use xlink:href="#transformed-72217" transform="translate(-439.5, -222.66)"></use><use xlink:href="#transformed-72217" transform="translate(0, -222.66)"></use><use xlink:href="#transformed-72217" transform="translate(439.5, -222.66)"></use><use xlink:href="#transformed-72217" transform="translate(-439.5, 0)"></use><use xlink:href="#transformed-72217" transform="translate(0, 0)"></use><use xlink:href="#transformed-72217" transform="translate(439.5, 0)"></use><use xlink:href="#transformed-72217" transform="translate(-439.5, 222.66)"></use><use xlink:href="#transformed-72217" transform="translate(0, 222.66)"></use><use xlink:href="#transformed-72217" transform="translate(439.5, 222.66)"></use><use xlink:href="#transformed-40035" transform="translate(-439.5, -222.66)"></use><use xlink:href="#transformed-40035" transform="translate(0, -222.66)"></use><use xlink:href="#transformed-40035" transform="translate(439.5, -222.66)"></use><use xlink:href="#transformed-40035" transform="translate(-439.5, 0)"></use><use xlink:href="#transformed-40035" transform="translate(0, 0)"></use><use xlink:href="#transformed-40035" transform="translate(439.5, 0)"></use><use xlink:href="#transformed-40035" transform="translate(-439.5, 222.66)"></use><use xlink:href="#transformed-40035" transform="translate(0, 222.66)"></use><use xlink:href="#transformed-40035" transform="translate(439.5, 222.66)"></use><use xlink:href="#transformed-59098" transform="translate(-439.5, -222.66)"></use><use xlink:href="#transformed-59098" transform="translate(0, -222.66)"></use><use xlink:href="#transformed-59098" transform="translate(439.5, -222.66)"></use><use xlink:href="#transformed-59098" transform="translate(-439.5, 0)"></use><use xlink:href="#transformed-59098" transform="translate(0, 0)"></use><use xlink:href="#transformed-59098" transform="translate(439.5, 0)"></use><use xlink:href="#transformed-59098" transform="translate(-439.5, 222.66)"></use><use xlink:href="#transformed-59098" transform="translate(0, 222.66)"></use><use xlink:href="#transformed-59098" transform="translate(439.5, 222.66)"></use></svg>